<svg width="34" height="34" viewBox="0 0 34 34" fill="none" xmlns="http://www.w3.org/2000/svg">
<path d="M28.8203 9.69531H26.4861C26.3268 9.69531 26.1773 9.62559 26.0777 9.50273C25.8453 9.22051 25.5963 8.94824 25.334 8.68926C24.2612 7.61534 22.9904 6.75952 21.592 6.16914C20.1432 5.55721 18.586 5.24329 17.0133 5.24609C15.4229 5.24609 13.8822 5.5582 12.4346 6.16914C11.0361 6.75952 9.76538 7.61534 8.69258 8.68926C7.61786 9.75953 6.7609 11.0281 6.16915 12.4246C5.55489 13.8723 5.2461 15.4096 5.2461 17C5.2461 18.5904 5.55821 20.1277 6.16915 21.5754C6.76016 22.9732 7.61016 24.2316 8.69258 25.3107C9.77501 26.3898 11.0334 27.2398 12.4346 27.8309C13.8822 28.4418 15.4229 28.7539 17.0133 28.7539C18.6037 28.7539 20.1443 28.4451 21.592 27.8309C22.9932 27.2398 24.2516 26.3898 25.334 25.3107C25.5963 25.0484 25.842 24.7762 26.0777 24.4973C26.1773 24.3744 26.3301 24.3047 26.4861 24.3047H28.8203C29.0295 24.3047 29.159 24.5371 29.0428 24.7131C26.4961 28.6709 22.0402 31.2906 16.9768 31.2773C9.02129 31.2574 2.64297 24.7994 2.72266 16.8539C2.80235 9.03457 9.17071 2.72266 17.0133 2.72266C22.0635 2.72266 26.4994 5.33906 29.0428 9.28691C29.1557 9.46289 29.0295 9.69531 28.8203 9.69531ZM31.7721 17.2092L27.0606 20.9279C26.8846 21.0674 26.6289 20.9412 26.6289 20.7187V18.1953H16.2031C16.057 18.1953 15.9375 18.0758 15.9375 17.9297V16.0703C15.9375 15.9242 16.057 15.8047 16.2031 15.8047H26.6289V13.2812C26.6289 13.0588 26.8879 12.9326 27.0606 13.0721L31.7721 16.7908C31.8038 16.8157 31.8295 16.8474 31.8472 16.8837C31.8648 16.9199 31.874 16.9597 31.874 17C31.874 17.0403 31.8648 17.0801 31.8472 17.1163C31.8295 17.1526 31.8038 17.1843 31.7721 17.2092Z" fill="#CCCCCC"/>
</svg>
